<?xml version="1.0" encoding="UTF-8" standalone="no"?>
<!DOCTYPE svg PUBLIC "-//W3C//DTD SVG 1.1//EN" "http://www.w3.org/Graphics/SVG/1.1/DTD/svg11.dtd">
<svg width="100%" height="100%" viewBox="0 0 24 24" version="1.1" xmlns="http://www.w3.org/2000/svg" xmlns:xlink="http://www.w3.org/1999/xlink" xml:space="preserve" xmlns:serif="http://www.serif.com/" style="fill-rule:evenodd;clip-rule:evenodd;stroke-linecap:round;stroke-linejoin:round;stroke-miterlimit:1.5;">
    <g transform="matrix(1.12288,0,0,1.12288,-3.53293,-3.3303)">
        <circle cx="13.833" cy="13.653" r="9.796" style="fill:none;stroke:black;stroke-width:1.16px;"/>
    </g>
    <g transform="matrix(1.6917,0,0,1.6917,-8.91895,-9.68035)">
        <path d="M12.366,13.995" style="fill:none;stroke:black;stroke-width:0.59px;"/>
    </g>
    <g transform="matrix(0.81141,0,0,1,2.32029,-1.61655)">
        <path d="M5.252,17.86C6.387,18.877 7.547,19.622 8.791,20.107C9.806,20.503 10.87,20.7 11.929,20.703C12.736,20.705 13.543,20.578 14.328,20.344C14.994,20.146 15.646,19.888 16.279,19.534C17.083,19.085 17.851,18.543 18.608,17.86C18.947,17.628 18.992,17.217 18.707,16.941C18.422,16.666 17.915,16.629 17.576,16.86C16.592,17.36 15.641,17.673 14.709,17.906C14.325,18.002 13.948,18.056 13.574,18.113C13.019,18.198 12.475,18.207 11.93,18.204C11.478,18.202 11.027,18.195 10.568,18.137C10.104,18.078 9.636,18.013 9.157,17.893C8.225,17.658 7.271,17.355 6.283,16.86C5.943,16.629 5.436,16.666 5.151,16.942C4.867,17.218 4.912,17.629 5.252,17.86Z"/>
    </g>
    <g transform="matrix(1,0,0,1,0.173404,0.255416)">
        <path d="M6.527,9.567C6.864,9.324 7.185,9.198 7.487,9.086C7.617,9.038 7.743,9.03 7.864,9.012C7.963,8.997 8.058,8.986 8.158,9C8.497,9.049 8.868,9.165 9.274,9.537C9.414,9.721 9.677,9.758 9.861,9.618C10.046,9.479 10.082,9.216 9.943,9.031C9.742,8.607 9.511,8.309 9.27,8.061C9.122,7.908 8.957,7.809 8.794,7.718C8.508,7.559 8.2,7.495 7.897,7.509C7.531,7.527 7.156,7.653 6.825,7.911C6.488,8.173 6.189,8.527 5.908,9.001C5.752,9.172 5.764,9.437 5.935,9.593C6.106,9.749 6.371,9.737 6.527,9.567Z"/>
        <g transform="matrix(1,0,0,1,7.82715,-0.0480477)">
            <path d="M6.527,9.567C6.864,9.324 7.185,9.198 7.487,9.086C7.617,9.038 7.743,9.03 7.864,9.012C7.963,8.997 8.058,8.986 8.158,9C8.497,9.049 8.868,9.165 9.274,9.537C9.414,9.721 9.677,9.758 9.861,9.618C10.046,9.479 10.082,9.216 9.943,9.031C9.742,8.607 9.511,8.309 9.27,8.061C9.122,7.908 8.957,7.809 8.794,7.718C8.508,7.559 8.2,7.495 7.897,7.509C7.531,7.527 7.156,7.653 6.825,7.911C6.488,8.173 6.189,8.527 5.908,9.001C5.752,9.172 5.764,9.437 5.935,9.593C6.106,9.749 6.371,9.737 6.527,9.567Z"/>
        </g>
    </g>
</svg>
