<?xml version="1.0" encoding="UTF-8" standalone="no"?>
<!DOCTYPE svg PUBLIC "-//W3C//DTD SVG 1.1//EN" "http://www.w3.org/Graphics/SVG/1.1/DTD/svg11.dtd">
<svg width="100%" height="100%" viewBox="0 0 24 24" version="1.1" xmlns="http://www.w3.org/2000/svg" xmlns:xlink="http://www.w3.org/1999/xlink" xml:space="preserve" xmlns:serif="http://www.serif.com/" style="fill-rule:evenodd;clip-rule:evenodd;stroke-linecap:round;stroke-linejoin:round;stroke-miterlimit:1.5;">
    <g transform="matrix(1.12288,0,0,1.12288,-3.53293,-3.3303)">
        <circle cx="13.833" cy="13.653" r="9.796" style="fill:none;stroke:black;stroke-width:1.16px;"/>
    </g>
    <g transform="matrix(1.2061,0,0,1.4007,-5.97713,-10.2696)">
        <ellipse cx="11.679" cy="13.96" rx="0.953" ry="1.243"/>
    </g>
    <g transform="matrix(1.2061,0,0,1.4007,1.80466,-10.2696)">
        <ellipse cx="11.679" cy="13.96" rx="0.953" ry="1.243"/>
    </g>
    <g transform="matrix(1.6917,0,0,1.6917,-8.91895,-9.68035)">
        <path d="M12.366,13.995" style="fill:none;stroke:black;stroke-width:0.59px;"/>
    </g>
    <g transform="matrix(-0.81141,-9.93691e-17,1.22465e-16,-1,21.6797,35.1968)">
        <path d="M5.252,17.86C6.387,18.877 7.547,19.622 8.791,20.107C9.806,20.503 10.87,20.7 11.929,20.703C12.736,20.705 13.543,20.578 14.328,20.344C14.994,20.146 15.646,19.888 16.279,19.534C17.083,19.085 17.851,18.543 18.608,17.86C18.947,17.628 18.992,17.217 18.707,16.941C18.422,16.666 17.915,16.629 17.576,16.86C16.592,17.36 15.641,17.673 14.709,17.906C14.325,18.002 13.948,18.056 13.574,18.113C13.019,18.198 12.475,18.207 11.93,18.204C11.478,18.202 11.027,18.195 10.568,18.137C10.104,18.078 9.636,18.013 9.157,17.893C8.225,17.658 7.271,17.355 6.283,16.86C5.943,16.629 5.436,16.666 5.151,16.942C4.867,17.218 4.912,17.629 5.252,17.86Z"/>
    </g>
    <g transform="matrix(0.990333,-0.138712,0.138712,0.990333,-0.27653,2.23369)">
        <path d="M6.274,6.451C6.447,6.568 6.652,6.753 6.878,6.936C7.081,7.1 7.294,7.269 7.478,7.431C7.632,7.566 7.784,7.667 7.846,7.772C8.015,8.106 8.424,8.241 8.759,8.072C9.094,7.903 9.228,7.494 9.059,7.159C8.926,6.852 8.56,6.386 8.092,5.999C7.713,5.685 7.269,5.434 6.957,5.276C6.633,5.087 6.216,5.198 6.028,5.522C5.839,5.847 5.95,6.263 6.274,6.451Z"/>
    </g>
    <g transform="matrix(-0.990333,-0.138712,-0.138712,0.990333,24.2765,2.23369)">
        <path d="M6.957,5.276C7.269,5.434 7.713,5.685 8.092,5.999C8.56,6.386 8.926,6.852 9.059,7.159C9.228,7.494 9.094,7.903 8.759,8.072C8.424,8.241 8.015,8.106 7.846,7.772C7.784,7.667 7.632,7.566 7.478,7.431C7.294,7.269 7.081,7.1 6.878,6.936C6.652,6.753 6.447,6.568 6.274,6.451C5.95,6.263 5.839,5.847 6.028,5.522C6.216,5.198 6.633,5.087 6.957,5.276Z"/>
    </g>
</svg>
