<?xml version="1.0" encoding="UTF-8" standalone="no"?>
<!DOCTYPE svg PUBLIC "-//W3C//DTD SVG 1.1//EN" "http://www.w3.org/Graphics/SVG/1.1/DTD/svg11.dtd">
<svg width="100%" height="100%" viewBox="0 0 24 24" version="1.1" xmlns="http://www.w3.org/2000/svg" xmlns:xlink="http://www.w3.org/1999/xlink" xml:space="preserve" xmlns:serif="http://www.serif.com/" style="fill-rule:evenodd;clip-rule:evenodd;stroke-linecap:round;stroke-linejoin:round;stroke-miterlimit:1.5;">
    <g transform="matrix(1.12288,0,0,1.12288,-3.53293,-3.3303)">
        <circle cx="13.833" cy="13.653" r="9.796" style="fill:none;stroke:black;stroke-width:1.16px;"/>
    </g>
    <g transform="matrix(1,0,0,1,0.146914,0)">
        <g transform="matrix(1.2061,0,0,1.4007,-6.12404,-10.2696)">
            <ellipse cx="11.679" cy="13.96" rx="0.953" ry="1.243"/>
        </g>
        <g transform="matrix(1.2061,0,0,1.4007,1.65775,-10.2696)">
            <ellipse cx="11.679" cy="13.96" rx="0.953" ry="1.243"/>
        </g>
    </g>
    <g transform="matrix(1.6917,0,0,1.6917,-8.91895,-9.68035)">
        <path d="M12.366,13.995" style="fill:none;stroke:black;stroke-width:0.59px;"/>
    </g>
    <g transform="matrix(0.81141,0,0,1,2.32029,-1.61655)">
        <path d="M5.305,17.893C6.473,18.785 7.655,19.444 8.919,19.869C9.898,20.199 10.914,20.368 11.929,20.37C12.699,20.373 13.467,20.263 14.219,20.069C14.876,19.9 15.517,19.679 16.146,19.377C16.976,18.979 17.768,18.499 18.555,17.893C18.917,17.685 19.004,17.278 18.748,16.984C18.492,16.69 17.991,16.62 17.628,16.827C16.635,17.239 15.678,17.482 14.732,17.661C14.346,17.734 13.969,17.77 13.592,17.813C13.032,17.876 12.483,17.871 11.931,17.872C11.194,17.873 10.462,17.852 9.707,17.735C8.579,17.561 7.427,17.321 6.229,16.827C5.867,16.62 5.365,16.691 5.11,16.985C4.855,17.279 4.943,17.686 5.305,17.893Z"/>
    </g>
</svg>
