<?xml version="1.0" encoding="UTF-8" standalone="no"?>
<!DOCTYPE svg PUBLIC "-//W3C//DTD SVG 1.1//EN" "http://www.w3.org/Graphics/SVG/1.1/DTD/svg11.dtd">
<svg width="100%" height="100%" viewBox="0 0 24 24" version="1.1" xmlns="http://www.w3.org/2000/svg" xmlns:xlink="http://www.w3.org/1999/xlink" xml:space="preserve" xmlns:serif="http://www.serif.com/" style="fill-rule:evenodd;clip-rule:evenodd;stroke-linecap:round;stroke-linejoin:round;stroke-miterlimit:1.5;">
    <g transform="matrix(1.12288,0,0,1.12288,-3.53293,-3.3303)">
        <circle cx="13.833" cy="13.653" r="9.796" style="fill:none;stroke:black;stroke-width:1.16px;"/>
    </g>
    <g transform="matrix(1,0,0,1,0.146914,0)">
        <g transform="matrix(1.2061,0,0,1.4007,-6.12404,-10.2696)">
            <ellipse cx="11.679" cy="13.96" rx="0.953" ry="1.243"/>
        </g>
        <g transform="matrix(1.2061,0,0,1.4007,1.65775,-10.2696)">
            <ellipse cx="11.679" cy="13.96" rx="0.953" ry="1.243"/>
        </g>
    </g>
    <g transform="matrix(1.6917,0,0,1.6917,-8.91895,-9.68035)">
        <path d="M12.366,13.995" style="fill:none;stroke:black;stroke-width:0.59px;"/>
    </g>
    <g transform="matrix(-0.81141,-9.93691e-17,1.22465e-16,-1,21.6797,33.759)">
        <path d="M5.518,18.121C6.566,18.399 7.613,18.622 8.672,18.772C9.754,18.926 10.842,19.014 11.931,19.015C12.586,19.016 13.24,18.979 13.892,18.917C15.384,18.775 16.859,18.497 18.334,18.122C18.853,18.013 19.165,17.584 19.031,17.163C18.897,16.742 18.367,16.489 17.849,16.598C16.458,16.829 15.078,16.94 13.7,16.989C13.108,17.011 12.518,17.013 11.927,17.016C10.942,17.02 9.96,17.004 8.971,16.932C7.99,16.861 7.006,16.765 6.017,16.599C5.499,16.487 4.967,16.738 4.83,17.158C4.692,17.578 5.001,18.009 5.518,18.121Z"/>
    </g>
</svg>
