<svg width="50" height="50" viewBox="0 0 50 50" fill="none" xmlns="http://www.w3.org/2000/svg">
<rect width="50" height="50" fill="#F7F2ED"/>
<path d="M21.2817 45L20.4783 38.5728C19.7691 38.3591 19.002 38.0228 18.1772 37.5639C17.3524 37.1054 16.6509 36.6141 16.0728 36.09L10.145 38.6111L6 31.3889L11.1239 27.5256C11.0583 27.1241 11.0043 26.7104 10.9617 26.2844C10.9187 25.8585 10.8972 25.4446 10.8972 25.0428C10.8972 24.6694 10.9187 24.277 10.9617 23.8656C11.0043 23.4537 11.0583 22.99 11.1239 22.4744L6 18.6111L10.145 11.4744L16.03 13.9528C16.6937 13.4002 17.4117 12.9017 18.1839 12.4572C18.9557 12.0128 19.7063 11.6694 20.4356 11.4272L21.2817 5H29.5728L30.3761 11.47C31.228 11.7693 31.9807 12.1126 32.6344 12.5C33.2882 12.8874 33.9613 13.3717 34.6539 13.9528L40.7095 11.4744L44.8545 18.6111L39.5594 22.6028C39.682 23.0613 39.7506 23.4822 39.765 23.8656C39.7791 24.2485 39.7861 24.6267 39.7861 25C39.7861 25.3448 39.7719 25.7087 39.7433 26.0917C39.7148 26.475 39.6493 26.9387 39.5467 27.4828L44.7561 31.3889L40.6111 38.6111L34.6539 36.0472C33.9613 36.6283 33.2646 37.1269 32.5639 37.5428C31.8632 37.9587 31.1339 38.2878 30.3761 38.53L29.5728 45H21.2817ZM23.205 42.7778H27.5511L28.3717 36.7606C29.4913 36.4643 30.4991 36.0576 31.395 35.5406C32.2913 35.0235 33.2037 34.3148 34.1322 33.4144L39.675 35.7778L41.8844 32L37.0211 28.3461C37.2063 27.7135 37.3289 27.1317 37.3889 26.6006C37.4485 26.0691 37.4783 25.5356 37.4783 25C37.4783 24.4359 37.4485 23.9024 37.3889 23.3994C37.3289 22.8969 37.2063 22.3435 37.0211 21.7394L41.97 18L39.7606 14.2222L34.0894 16.5983C33.4172 15.8606 32.5333 15.1689 31.4378 14.5233C30.3426 13.8781 29.3063 13.4502 28.3289 13.2394L27.6494 7.22222H23.2178L22.5256 13.1967C21.4059 13.4359 20.3767 13.8213 19.4378 14.3528C18.4993 14.8839 17.5656 15.6139 16.6367 16.5428L11.0939 14.2222L8.88444 18L13.705 21.5983C13.5198 22.0969 13.3902 22.6381 13.3161 23.2222C13.242 23.8063 13.205 24.4131 13.205 25.0428C13.205 25.6069 13.242 26.1667 13.3161 26.7222C13.3902 27.2778 13.5056 27.8191 13.6622 28.3461L8.88444 32L11.0939 35.7778L16.5939 33.4444C17.4657 34.3248 18.3709 35.0307 19.3094 35.5622C20.2483 36.0933 21.3061 36.507 22.4828 36.8033L23.205 42.7778ZM25.3672 30.5556C26.9172 30.5556 28.2307 30.017 29.3078 28.94C30.3844 27.8633 30.9228 26.55 30.9228 25C30.9228 23.45 30.3844 22.1367 29.3078 21.06C28.2307 19.983 26.9172 19.4444 25.3672 19.4444C23.8091 19.4444 22.4935 19.983 21.4206 21.06C20.348 22.1367 19.8117 23.45 19.8117 25C19.8117 26.55 20.348 27.8633 21.4206 28.94C22.4935 30.017 23.8091 30.5556 25.3672 30.5556Z" fill="#444444"/>
<circle cx="25" cy="25" r="5" fill="#F7F2ED" stroke="#444444" stroke-width="2"/>
</svg>
